<?xml version="1.0" encoding="utf-8"?>
<!-- Generator: Adobe Illustrator 27.8.1, SVG Export Plug-In . SVG Version: 6.00 Build 0)  -->
<svg version="1.1" id="Layer_1" xmlns="http://www.w3.org/2000/svg" xmlns:xlink="http://www.w3.org/1999/xlink" x="0px" y="0px"
	 viewBox="0 0 35.2 6.7" style="enable-background:new 0 0 35.2 6.7;" xml:space="preserve">
<style type="text/css">
	.st0{enable-background:new    ;}
	.st1{fill:#FFFFFF;}
</style>
<g id="Layer_1_00000103978859674998295830000000353930850118484878_">
</g>
<g id="Layer_2_00000048461878786138242870000015067076722371044511_">
	<g class="st0">
		<path class="st1" d="M7.9,3.7H7.2c0,0,0,0.1,0.3,0.1c0.4,0,1.1-0.1,1.1,0.4C8.5,4.4,8.4,5,7.4,5C6.3,5,5.8,4.2,5.8,3.5
			c0-1.3,1.2-1.7,1.6-1.7c0.4,0,1.3,0.2,1.3,1.4C8.7,3.4,8.5,3.7,7.9,3.7z M7.8,3.1c0,0,0-0.3-0.4-0.3c-0.4,0-0.4,0.3-0.4,0.3H7.8z"
			/>
		<path class="st1" d="M11.8,4.1c0.2,0.2,0.2,0.6-0.1,0.8C11.6,5,11.4,5,11.3,5c-0.2,0-0.3-0.1-0.5-0.2l-0.4-0.5l-0.4,0.5
			C10,4.9,9.8,5,9.6,5C9.5,5,9.3,5,9.2,4.9C9,4.7,9,4.3,9.2,4.1l0.5-0.6L9.2,2.8C9,2.5,9,2.1,9.2,1.9c0.1-0.1,0.2-0.1,0.4-0.1
			c0.2,0,0.3,0.1,0.5,0.2l0.4,0.5L10.8,2c0.1-0.1,0.3-0.2,0.5-0.2c0.1,0,0.3,0,0.4,0.1c0.3,0.2,0.3,0.6,0.1,0.8l-0.5,0.6L11.8,4.1z"
			/>
		<path class="st1" d="M15.5,3.4C15.5,4.6,14.6,5,14,5c-0.1,0-0.3,0-0.5-0.1v0.7c0,0.3-0.3,0.6-0.6,0.6c-0.3,0-0.6-0.3-0.6-0.6V2.4
			c0-0.3,0.3-0.6,0.6-0.6c0.1,0,0.3,0.1,0.4,0.1c0.2-0.1,0.4-0.1,0.6-0.1C14.8,1.8,15.5,2.5,15.5,3.4z M14.3,3.4
			c0-0.2-0.2-0.4-0.4-0.4c-0.2,0-0.4,0.2-0.4,0.4c0,0.2,0.2,0.4,0.5,0.4C14.1,3.8,14.3,3.7,14.3,3.4z"/>
		<path class="st1" d="M17.1,1.1v3.3c0,0.3-0.3,0.6-0.6,0.6c-0.3,0-0.6-0.3-0.6-0.6V1.1c0-0.3,0.3-0.6,0.6-0.6
			C16.8,0.5,17.1,0.8,17.1,1.1z"/>
		<path class="st1" d="M20.7,3.4C20.7,4.3,19.9,5,19,5c-0.9,0-1.6-0.7-1.6-1.6c0-0.9,0.7-1.6,1.6-1.6C20.2,1.8,20.7,2.8,20.7,3.4z
			 M19.5,3.4C19.5,3.1,19.3,3,19,3c-0.2,0-0.4,0.2-0.4,0.4c0,0.2,0.2,0.4,0.4,0.4C19.3,3.8,19.5,3.7,19.5,3.4z"/>
		<path class="st1" d="M23.8,2.7c0,0.2-0.1,0.3-0.2,0.4c-0.1,0.1-0.3,0.1-0.4,0.1c-0.2,0-0.3-0.1-0.4-0.2C22.7,3,22.7,3,22.6,3
			c-0.2,0-0.4,0.2-0.4,0.4v1c0,0.3-0.3,0.6-0.6,0.6C21.3,5,21,4.8,21,4.4v-2c0-0.3,0.3-0.6,0.6-0.6c0.1,0,0.3,0.1,0.4,0.1
			c0.2-0.1,0.4-0.1,0.6-0.1c0.4,0,0.8,0.2,1.1,0.5C23.8,2.4,23.8,2.6,23.8,2.7z"/>
		<path class="st1" d="M26.1,3.7h-0.8c0,0,0,0.1,0.3,0.1c0.4,0,1.1-0.1,1.1,0.4c0,0.2-0.1,0.8-1.1,0.8C24.5,5,24,4.2,24,3.5
			c0-1.3,1.2-1.7,1.6-1.7c0.4,0,1.3,0.2,1.3,1.4C26.9,3.4,26.7,3.7,26.1,3.7z M26,3.1c0,0,0-0.3-0.4-0.3c-0.4,0-0.4,0.3-0.4,0.3H26z
			"/>
		<path class="st1" d="M30.9,2c0,0.9-0.7,1.5-1.5,1.5h-0.8v0.8C28.6,4.7,28.3,5,28,5s-0.6-0.3-0.6-0.6V1.1c0-0.3,0.3-0.6,0.6-0.6
			h1.4C30.3,0.5,30.9,1.2,30.9,2z M29.4,1.7h-0.8v0.6h0.8c0.2,0,0.3-0.1,0.3-0.3C29.7,1.9,29.6,1.7,29.4,1.7z"/>
		<path class="st1" d="M34.8,4.4c0,0.3-0.3,0.6-0.6,0.6c-0.3,0-0.6-0.3-0.6-0.6v-1h-1.1v1c0,0.3-0.3,0.6-0.6,0.6
			c-0.3,0-0.6-0.3-0.6-0.6V1.1c0-0.3,0.3-0.6,0.6-0.6c0.3,0,0.6,0.3,0.6,0.6v1h1.1v-1c0-0.3,0.3-0.6,0.6-0.6c0.3,0,0.6,0.3,0.6,0.6
			V4.4z"/>
	</g>
</g>
<g id="Layer_4">
	<path class="st1" d="M2.7,4.7C2.5,4.9,2.1,5.3,2,5.4C0.5,4.1,0,3,0.5,1.8c0.4-0.9,1.3-1.6,2.4-1.6c0.8,0,1.4,0.4,1.6,0.6L3.9,1.5
		c0,0-0.7-0.6-1.7-0.1C1.2,1.8,0.7,3.6,2.7,4.7z"/>
	<path class="st1" d="M4.8,1L4.1,1.8c0,0,0.4,0.4,0.3,1S4.2,3.7,3.7,4.2S2.2,5.7,2.2,5.7L3,6.5l2-2.1c0,0,1-1.1,0.2-2.7
		C5.1,1.4,4.8,1,4.8,1z"/>
	<path class="st1" d="M2.9,3.7c0,0-0.6-0.4-0.6-0.8S2.6,2.2,3,2.1S3.8,2.6,3.5,3C3.4,3.3,2.9,3.7,2.9,3.7z"/>
</g>
</svg>
